<svg width="23" height="23" viewBox="0 0 23 23" fill="none" xmlns="http://www.w3.org/2000/svg">
<path d="M21.279 11.6679C21.283 12.4968 21.2329 13.5735 21.1438 14.648C21.1334 14.7713 21.1664 14.866 21.2399 14.9658C23.4923 18.0319 21.7104 22.3587 17.9482 22.9375C16.6098 23.1433 15.3753 22.8359 14.2695 22.0488C14.1182 21.9411 13.9773 21.8951 13.7925 21.9107C12.0958 22.0574 10.396 22.0791 8.69584 21.9936C7.39482 21.9281 6.09424 21.8321 4.818 21.5634C2.59383 21.0949 0.71405 19.02 0.385751 16.7746C-0.00820794 14.0854 -0.0903913 11.3875 0.093543 8.68003C0.168334 7.57639 0.252692 6.46884 0.522723 5.39299C1.06322 3.23824 3.09041 1.47294 5.28936 1.15036C7.73312 0.791741 10.186 0.696226 12.6493 0.816054C13.9143 0.877705 15.1779 0.980168 16.4198 1.23502C18.6431 1.69089 20.5407 3.72581 20.8816 5.97043C21.156 7.77654 21.2795 9.59307 21.2786 11.6684L21.279 11.6679ZM10.6439 2.41551C9.57942 2.41334 8.51669 2.45849 7.457 2.55183C6.79432 2.61001 6.13555 2.70075 5.47677 2.79714C3.89877 3.02768 2.39685 4.40875 2.08334 5.96999C1.85809 7.09187 1.76069 8.23198 1.70286 9.37339C1.58067 11.7925 1.66242 14.2026 2.0329 16.6009C2.26771 18.12 3.64178 19.6313 5.15369 19.9491C6.07467 20.1428 7.01304 20.2283 7.95054 20.296C9.47506 20.4068 11.0013 20.4198 12.5285 20.3486C12.7159 20.3399 12.7463 20.3091 12.6606 20.1319C12.2171 19.215 12.061 18.2451 12.2158 17.2395C12.7367 13.8565 16.2832 11.9701 19.3736 13.4267C19.521 13.4962 19.5767 13.5097 19.5854 13.3095C19.6893 10.9255 19.6071 8.55239 19.2423 6.19011C18.9953 4.59153 17.4916 3.05807 15.8971 2.80712C14.156 2.53317 12.4041 2.41855 10.6439 2.41507V2.41551ZM20.5811 17.9724C20.5846 16.1072 19.0705 14.5829 17.2086 14.5777C15.3475 14.5725 13.816 16.0933 13.8121 17.9511C13.8082 19.8141 15.3253 21.3398 17.1868 21.3445C19.0523 21.3489 20.5772 19.8341 20.5807 17.9728L20.5811 17.9724Z" fill="#828282"/>
<path d="M10.6384 6.31732C12.396 6.31732 14.1536 6.31515 15.9112 6.31862C16.5339 6.31993 16.94 6.89649 16.71 7.44875C16.5822 7.75527 16.34 7.92068 16.013 7.9628C15.963 7.96931 15.9121 7.96844 15.8612 7.96844C12.3751 7.96844 8.88909 7.96887 5.4026 7.96844C4.95429 7.96844 4.62555 7.74224 4.52076 7.3719C4.36857 6.83484 4.75296 6.3221 5.32259 6.31993C6.62448 6.31472 7.92637 6.31819 9.22826 6.31819C9.69831 6.31819 10.1684 6.31819 10.6384 6.31819V6.31732Z" fill="#828282"/>
<path d="M8.4774 13.1011C7.41467 13.1011 6.35193 13.1046 5.2892 13.0994C4.90742 13.0972 4.59086 12.828 4.51172 12.4655C4.4291 12.0856 4.60739 11.707 4.95003 11.5403C5.08179 11.476 5.22354 11.4508 5.37008 11.4508C7.43771 11.4513 9.50534 11.4491 11.573 11.4526C12.0809 11.4534 12.4492 11.8077 12.4518 12.277C12.4544 12.7529 12.0796 13.1007 11.5569 13.1015C10.5302 13.1033 9.5036 13.102 8.47696 13.102V13.1011H8.4774Z" fill="#828282"/>
<path d="M18.0212 16.8531C18.0212 17.0914 18.0265 17.3302 18.0199 17.5686C18.0073 18.024 17.6434 18.3783 17.1972 18.3779C16.7598 18.3779 16.3884 18.0336 16.3758 17.5894C16.3619 17.1058 16.3615 16.6208 16.3758 16.1367C16.3893 15.6839 16.7698 15.3426 17.2198 15.3522C17.6582 15.3617 18.0082 15.7112 18.0204 16.1593C18.0265 16.3903 18.0217 16.6217 18.0212 16.8531Z" fill="#828282"/>
<path d="M18.0199 19.7273C18.0321 20.4232 17.8925 20.5639 17.1981 20.5639C17.1333 20.5639 17.0681 20.5635 17.0033 20.56C16.542 20.5374 16.3845 20.3802 16.3689 19.9222C16.3619 19.7203 16.3519 19.518 16.3902 19.3183C16.4367 19.0756 16.5841 18.9419 16.8307 18.9145C17.0533 18.8898 17.2764 18.8872 17.4999 18.908C17.8382 18.9397 17.9947 19.0908 18.0182 19.4246C18.0252 19.5249 18.0195 19.6261 18.0195 19.7273H18.0199Z" fill="#828282"/>
</svg>
