<svg width="20" height="19" viewBox="0 0 20 19" fill="none" xmlns="http://www.w3.org/2000/svg">
<g clip-path="url(#clip0_196_7181)">
<path d="M19.3462 11.233C19.0043 13.0814 18.122 14.7869 16.8108 16.1337C15.4995 17.4806 13.8184 18.4083 11.9798 18.7997C10.1413 19.191 8.22802 19.0283 6.48196 18.3322C4.7359 17.6361 3.2355 16.4378 2.1705 14.8889C1.10551 13.34 0.523787 11.51 0.498881 9.63048C0.473976 7.75094 1.00702 5.90622 2.03059 4.32963C3.05417 2.75305 4.52229 1.51542 6.2493 0.773279C7.9763 0.0311362 9.8846 -0.182185 11.7329 0.160291C14.2106 0.61941 16.4045 2.04381 17.8322 4.12025C19.26 6.19669 19.8045 8.75516 19.3462 11.233Z" fill="#2263E3"/>
<path d="M2.4166 5.78345C2.11035 7.58774 2.32822 9.44201 3.04436 11.1262C3.42251 11.9829 3.99563 12.7394 4.718 13.3354C5.44037 13.9314 6.29201 14.3504 7.205 14.5589C8.15558 14.7461 9.14137 14.6154 10.0103 14.187C10.8793 13.7585 11.5832 13.0561 12.0134 12.188C12.3954 11.1027 12.5122 9.94174 12.354 8.80208C12.354 8.51491 12.3206 8.23442 12.314 7.95393C12.2538 5.49759 12.9281 3.07917 14.2507 1.00841C13.9969 0.881517 13.7365 0.767987 13.4693 0.661133C12.0945 2.85998 11.3977 5.415 11.4658 8.00736C11.4658 8.29453 11.4658 8.58169 11.5059 8.87554C11.6499 9.88274 11.5561 10.9097 11.2321 11.8741C10.8748 12.5647 10.3042 13.1217 9.60521 13.4622C8.90617 13.8027 8.11595 13.9086 7.35193 13.7641C6.56903 13.5845 5.83942 13.2231 5.22217 12.7091C4.60493 12.1951 4.11739 11.543 3.79902 10.8056C3.15092 9.26493 2.9563 7.57121 3.23804 5.9237C3.45644 4.57941 3.79849 3.25817 4.25983 1.97678C3.81175 2.31129 3.39589 2.68691 3.01765 3.09874C2.75165 3.97767 2.55076 4.875 2.4166 5.78345Z" fill="white"/>
</g>
<defs>
<clipPath id="clip0_196_7181">
<rect width="19" height="19" fill="white" transform="translate(0.5)"/>
</clipPath>
</defs>
</svg>
