<svg width="28" height="30" viewBox="0 0 28 30" fill="none" xmlns="http://www.w3.org/2000/svg">
<g clip-path="url(#clip0_614_1420)">
<path d="M0.502184 13.1827C0.502184 10.2537 0.496172 7.3255 0.502184 4.39652C0.508196 2.47062 1.75649 0.950406 3.61727 0.573696C3.94977 0.515168 4.28742 0.490272 4.62503 0.499394C9.36264 0.499394 14.1 0.499394 18.8371 0.499394C20.9955 0.499394 22.5369 1.72314 22.8856 3.70997C22.9258 3.99121 22.9417 4.27535 22.9329 4.55926C22.9329 8.94653 22.9314 13.3338 22.9284 17.7211C22.9284 18.025 23.0036 18.1669 23.3192 18.2553C25.9135 18.9983 27.6878 21.4949 27.4819 24.0821C27.2564 26.8803 25.201 29.0714 22.4467 29.4459C21.236 29.6048 20.0055 29.3814 18.9309 28.8076C17.8563 28.2338 16.9926 27.339 16.463 26.2509C16.33 25.973 16.1737 25.895 15.8761 25.8958C12.0639 25.9062 8.25139 25.9077 4.43866 25.9002C2.54707 25.8965 1.0463 24.7344 0.611169 22.9608C0.52993 22.5987 0.493094 22.2283 0.50145 21.8575C0.502953 18.9661 0.503186 16.0745 0.502184 13.1827ZM2.05257 13.1939C2.05257 16.1347 2.05708 19.0756 2.05257 22.0165C2.05257 22.8761 2.38625 23.5486 3.1047 24.0263C3.57065 24.3362 4.10198 24.3874 4.64834 24.3867C8.22258 24.3837 11.7971 24.3837 15.3718 24.3867C15.8799 24.3867 15.8799 24.3867 15.8746 23.871C15.8423 20.9079 17.9969 18.4203 20.9436 18.0658C21.3382 18.0183 21.4209 17.9039 21.4194 17.539C21.4073 13.1894 21.4126 8.83977 21.4111 4.49014C21.4111 2.95061 20.4672 2.02407 18.91 2.02407C14.1356 2.02407 9.36116 2.04785 4.58672 2.00847C3.19039 1.99658 2.01201 2.95656 2.03907 4.52136C2.08641 7.41022 2.05182 10.3028 2.05257 13.1939ZM25.9435 23.7871C25.9668 21.4778 24.073 19.5519 21.75 19.5281C21.1862 19.5204 20.6264 19.6229 20.1028 19.8296C19.5791 20.0363 19.1019 20.3432 18.6985 20.7327C18.295 21.1222 17.9734 21.5866 17.7519 22.0992C17.5304 22.6119 17.4134 23.1628 17.4077 23.7202C17.3777 26.0161 19.2865 27.9554 21.608 27.9755C22.1717 27.9851 22.7317 27.8841 23.2557 27.6782C23.7796 27.4724 24.257 27.1658 24.6603 26.7762C25.0635 26.3867 25.3846 25.9219 25.6048 25.4088C25.8251 24.8957 25.9402 24.3445 25.9435 23.7871Z" fill="#2263E3"/>
<path d="M11.751 7.50591H6.50689C6.33178 7.50591 6.15593 7.51557 5.99135 7.44053C5.66068 7.29193 5.48933 7.03781 5.52014 6.67596C5.52482 6.51982 5.583 6.36986 5.68513 6.25067C5.78725 6.13147 5.92727 6.0501 6.08228 6.01987C6.24079 5.98662 6.40281 5.97265 6.56475 5.97826C9.99822 5.97826 13.4322 5.97826 16.8666 5.97826C17.5693 5.97826 17.9301 6.23534 17.9346 6.73539C17.9391 7.23544 17.5768 7.50739 16.8824 7.50739C15.1715 7.5064 13.461 7.50591 11.751 7.50591Z" fill="#2263E3"/>
<path d="M11.7059 11.8105C9.93082 11.8105 8.15546 11.8105 6.37986 11.8105C5.85379 11.8105 5.51335 11.4977 5.51861 11.04C5.51662 10.8655 5.57849 10.6961 5.69285 10.5631C5.8072 10.4301 5.96634 10.3425 6.1409 10.3163C6.2904 10.2975 6.44117 10.2903 6.59181 10.2947C10.0173 10.2947 13.4432 10.2947 16.8696 10.2947C17.5806 10.2947 17.9353 10.5444 17.9391 11.0452C17.9428 11.546 17.5851 11.8127 16.8869 11.8127L11.7059 11.8105Z" fill="#2263E3"/>
<path d="M11.7237 14.6027C13.4612 14.6027 15.199 14.6027 16.937 14.6027C17.1241 14.6027 17.3128 14.5849 17.4902 14.6718C17.8148 14.8353 17.9689 15.0998 17.9215 15.4601C17.8742 15.8205 17.6442 16.0278 17.2918 16.1036C17.2052 16.1166 17.1175 16.1204 17.0302 16.1147H6.41495C5.9257 16.1147 5.61607 15.906 5.5304 15.5322C5.41617 15.0388 5.76563 14.6138 6.32251 14.6072C7.29949 14.5945 8.27269 14.6027 9.24817 14.6027C10.0733 14.6022 10.8985 14.6022 11.7237 14.6027Z" fill="#2263E3"/>
<path d="M10.4345 20.4273C9.06149 20.4273 7.68768 20.4355 6.31464 20.4236C5.66983 20.4184 5.30009 19.8098 5.60972 19.2934C5.67792 19.1746 5.77824 19.0769 5.89943 19.0113C6.02062 18.9457 6.15787 18.9147 6.29585 18.9219C9.07649 18.9219 11.8639 18.9219 14.6476 18.9219C15.127 18.9219 15.4374 19.2392 15.4322 19.6806C15.4269 20.1219 15.118 20.4236 14.6295 20.4236C13.2309 20.4347 11.8331 20.4273 10.4345 20.4273Z" fill="#2263E3"/>
<path d="M22.4562 22.6574V23.6582C22.4562 24.0587 22.2773 24.3418 21.894 24.4904C21.4642 24.6561 21.0381 24.8314 20.6037 24.986C20.1355 25.1532 19.7019 24.9696 19.5516 24.5595C19.4012 24.1493 19.5982 23.7518 20.0664 23.5564C20.9066 23.2065 20.9058 23.2064 20.9066 22.3215C20.9066 22.0369 20.8953 21.7524 20.9118 21.4693C20.9381 21.0309 21.2718 20.7136 21.6814 20.7144C21.8781 20.7133 22.0674 20.788 22.2093 20.9227C22.3512 21.0574 22.4343 21.2415 22.4412 21.4358C22.469 21.8415 22.4472 22.2532 22.4472 22.6574H22.4562Z" fill="#2263E3"/>
</g>
<defs>
<clipPath id="clip0_614_1420">
<rect width="27" height="29" fill="white" transform="translate(0.5 0.5)"/>
</clipPath>
</defs>
</svg>
