<svg width="30" height="30" viewBox="0 0 30 30" fill="none" xmlns="http://www.w3.org/2000/svg">
<path d="M5.80695 9.31552C6.88553 9.31552 7.94037 9.31138 8.9952 9.3169C9.67306 9.32035 10.1324 9.75669 10.1729 10.4205C10.1785 10.5122 10.175 10.6039 10.175 10.6956C10.175 13.9299 10.175 17.1642 10.175 20.3978C10.175 20.4668 10.1764 20.5357 10.175 20.6039C10.1575 21.3436 9.72053 21.7841 8.97635 21.7868C7.50126 21.793 6.02546 21.8048 4.55106 21.7834C2.26896 21.751 0.511825 19.9815 0.503447 17.7301C0.497863 16.3081 0.499957 14.886 0.503447 13.4639C0.507636 11.6027 1.53385 10.1579 3.30355 9.52507C3.44596 9.47406 3.53951 9.42237 3.56464 9.25348C4.0582 5.95987 5.96263 3.65821 8.82277 2.06035C13.1657 -0.366083 18.9292 0.0743972 22.7905 3.11778C24.7926 4.69565 26.0806 6.70297 26.4353 9.24245C26.4583 9.40651 26.54 9.46993 26.6866 9.52301C28.4891 10.1786 29.4951 11.5993 29.4986 13.4873C29.5007 14.8749 29.5021 16.2626 29.4986 17.6502C29.4937 19.51 28.4619 20.9569 26.6922 21.5821C26.5177 21.6441 26.4499 21.7289 26.4136 21.9137C25.814 24.9488 23.5542 27.1091 20.4686 27.5958C19.686 27.7192 18.8922 27.6751 18.1027 27.6689C17.8744 27.6668 17.739 27.7137 17.6182 27.9405C16.9725 29.155 15.5986 29.7417 14.254 29.406C12.9639 29.084 12.0334 27.9053 12.0229 26.5797C12.0124 25.2493 12.943 24.0589 14.2575 23.7211C15.5853 23.3799 16.9718 23.9754 17.6196 25.19C17.7355 25.4079 17.8611 25.4789 18.0999 25.4727C19.0724 25.4499 20.0553 25.5444 20.9977 25.2114C22.5301 24.6703 23.55 23.6363 24.0743 22.1143C24.1657 21.8496 24.1148 21.7786 23.8292 21.7827C22.9119 21.7979 21.9939 21.791 21.0766 21.7868C20.2696 21.7834 19.8291 21.3498 19.8284 20.5495C19.8256 17.2235 19.8256 13.8975 19.8284 10.5715C19.8284 9.74773 20.2682 9.31483 21.0941 9.31345C22.0232 9.31138 22.9531 9.30104 23.8816 9.32034C24.1699 9.32655 24.1971 9.24383 24.1364 8.99498C23.7015 7.21307 22.6851 5.81787 21.2379 4.70599C17.4744 1.81426 11.4993 2.0893 8.04019 5.32363C6.88064 6.40794 6.10923 7.71352 5.80835 9.31345L5.80695 9.31552ZM7.94246 15.5505C7.94246 14.3118 7.93478 13.0737 7.94874 11.835C7.95153 11.5731 7.87335 11.5083 7.61575 11.5124C6.64049 11.5276 5.66454 11.5152 4.68929 11.5193C3.52555 11.5241 2.73948 12.2941 2.73599 13.437C2.7318 14.8474 2.7318 16.2577 2.73599 17.6681C2.73948 18.8027 3.5067 19.572 4.65159 19.583C5.63871 19.5927 6.62583 19.5768 7.61295 19.5906C7.86916 19.5941 7.95153 19.5279 7.94874 19.2653C7.93478 18.0272 7.94246 16.7885 7.94246 15.5498V15.5505ZM22.0589 15.5091C22.0589 16.7706 22.063 18.0321 22.0547 19.2928C22.0533 19.5107 22.1098 19.5934 22.3465 19.5906C23.3685 19.5782 24.3905 19.5968 25.4125 19.5817C26.4758 19.5658 27.2569 18.7896 27.2639 17.7439C27.2737 16.2881 27.2737 14.8315 27.2639 13.375C27.2576 12.3155 26.4604 11.5303 25.3881 11.5207C24.378 11.5117 23.3671 11.5269 22.3569 11.5124C22.1014 11.509 22.0512 11.5972 22.0533 11.8281C22.0637 13.0551 22.0582 14.2821 22.0582 15.5091H22.0589Z" fill="#2263E3"/>
</svg>
