<svg width="20" height="19" viewBox="0 0 20 19" fill="none" xmlns="http://www.w3.org/2000/svg">
<path d="M7.7674 12.822H7.44936C5.69357 12.822 3.93777 12.8248 2.18198 12.822C1.08901 12.8197 0.221664 12.1895 0.0753098 11.1704C-0.0499363 10.2983 -0.0499382 9.40769 0.33143 8.56566C1.385 6.24117 2.4245 3.91022 3.48417 1.58851C3.96404 0.537476 4.82153 0.0135765 5.9844 0.00756454C8.04416 -0.00353241 10.1049 0.0126514 12.1646 0.001091C13.2037 -0.00491905 14.0879 0.324772 14.8 1.0771C14.9219 1.20657 15.0495 1.41511 15.186 1.42436C15.3441 1.43546 15.3807 1.17096 15.4825 1.03456C15.7869 0.621092 16.2141 0.311106 16.7051 0.147495C17.196 -0.0161152 17.7264 -0.0252647 18.2229 0.121317C19.261 0.433899 19.9838 1.33003 19.9895 2.39355C20.0042 5.06992 20.0042 7.74659 19.9895 10.4236C19.9838 11.5287 19.1892 12.4789 18.1206 12.7356C17.0108 13.0024 15.8713 12.5243 15.3305 11.5435C15.2212 11.3456 15.1743 11.3775 15.035 11.5088C13.9007 12.5802 13.0179 13.8472 12.1126 15.1007C11.3949 16.0968 10.664 17.084 9.95475 18.0855C9.47347 18.7657 8.8463 19.1222 8.00054 18.9641C7.18104 18.8115 6.71571 18.2502 6.46428 17.5066C6.28086 16.9642 6.31745 16.4181 6.53464 15.885C6.90991 14.967 7.28221 14.0483 7.65154 13.1291C7.68719 13.0371 7.72143 12.9437 7.7674 12.822ZM15.0143 6.42521C15.0143 5.26366 15.0101 4.10211 15.0185 2.94057C15.0236 2.85786 15.0093 2.77512 14.9767 2.69872C14.9442 2.62232 14.8943 2.5543 14.8309 2.4999C14.5739 2.26407 14.3254 2.01931 14.0855 1.76561C13.5813 1.23477 12.9691 0.996176 12.2289 1.0008C10.1765 1.01406 8.12406 1.01406 6.07165 1.0008C5.22729 0.994326 4.67893 1.35823 4.34212 2.11333C3.40395 4.21263 2.46578 6.311 1.49805 8.39596C1.16218 9.11822 0.982054 9.84419 1.01536 10.6409C1.04866 11.4376 1.42159 11.8251 2.23123 11.8251C4.26801 11.8251 6.30525 11.8357 8.34203 11.8177C8.7947 11.8136 9.16856 12.0952 8.92839 12.6579C8.426 13.8384 7.95926 15.0342 7.47422 16.2221C7.3546 16.5157 7.303 16.8135 7.3926 17.1219C7.51175 17.5316 7.71346 17.889 8.16894 17.9921C8.62442 18.0952 8.90916 17.8409 9.15402 17.4914C9.67283 16.7515 10.2146 16.0288 10.7409 15.2945C12.015 13.5175 13.259 11.7164 14.9111 10.2456C15.0049 10.1628 15.0139 10.0675 15.0139 9.95609C15.0126 8.77913 15.0128 7.60217 15.0143 6.42521ZM19.0053 6.41319C19.0053 5.11384 19.0077 3.81496 19.0053 2.51562C19.0053 1.65833 18.3608 1.01051 17.5164 1.00681C16.6604 1.00311 16.0093 1.6514 16.0088 2.52024C16.0066 5.11831 16.0066 7.71654 16.0088 10.3149C16.0066 10.4837 16.0319 10.6516 16.0838 10.8125C16.3184 11.5084 17.007 11.9222 17.7524 11.8122C18.4448 11.7104 18.9973 11.0885 19.0011 10.3787C19.0095 9.05765 19.0049 7.73519 19.0053 6.41226V6.41319Z" fill="black"/>
</svg>
