<svg width="28" height="26" viewBox="0 0 28 26" fill="none" xmlns="http://www.w3.org/2000/svg">
<g clip-path="url(#clip0_614_2001)">
<path d="M13.9959 0.50582C16.4904 0.50582 18.9854 0.490449 21.4799 0.509668C24.2552 0.530534 26.6209 2.47494 27.3125 5.26882C27.4385 5.7825 27.5011 6.31079 27.4988 6.84093C27.4988 8.83311 27.5041 10.8247 27.4988 12.8164C27.4867 16.3554 24.8022 19.1416 21.4017 19.1471C18.6963 19.1515 15.9908 19.1502 13.2853 19.1433C13.1954 19.1398 13.1058 19.1569 13.0229 19.1933C12.94 19.2298 12.8658 19.2846 12.8054 19.3541C10.952 21.2899 9.09601 23.2228 7.23734 25.1527C7.02195 25.3773 6.78702 25.5371 6.47079 25.4932C6.04844 25.4383 5.78131 25.0896 5.78078 24.6031C5.77867 22.9773 5.77867 21.3511 5.78078 19.7242C5.78078 19.5243 5.83674 19.2794 5.74646 19.1367C5.65619 18.9939 5.39433 19.0334 5.20903 18.9895C2.49335 18.3388 0.529445 15.8107 0.51044 12.9114C0.498473 10.8738 0.498473 8.83641 0.51044 6.79921C0.514512 5.14022 1.14658 3.54964 2.26981 2.37179C3.39304 1.19394 4.91706 0.523573 6.51197 0.50582H6.61755H13.9959ZM7.36035 22.6169L7.43585 22.6559C7.49315 22.5749 7.55447 22.497 7.61957 22.4226C9.0661 20.9158 10.5174 19.4145 11.9571 17.9012C12.0757 17.7682 12.2204 17.6632 12.3815 17.5935C12.5425 17.5238 12.7161 17.4909 12.8904 17.497C15.737 17.5058 18.5835 17.5069 21.4297 17.5003C22.0176 17.5023 22.6001 17.3836 23.1438 17.151C23.6875 16.9185 24.1817 16.5767 24.5982 16.1451C25.0147 15.7136 25.3453 15.2009 25.571 14.6362C25.7966 14.0716 25.913 13.4663 25.9134 12.8548C25.9233 10.8359 25.9233 8.81664 25.9134 6.79701C25.9002 4.23869 23.9363 2.16524 21.4788 2.15701C16.4976 2.14017 11.5164 2.14017 6.53519 2.15701C4.06395 2.16524 2.10057 4.24363 2.09107 6.81677C2.08368 8.82726 2.08368 10.8374 2.09107 12.8471C2.09143 14.0675 2.55237 15.239 3.37471 16.1096C4.19704 16.9801 5.31506 17.4801 6.48821 17.502C7.05098 17.5157 7.35982 17.843 7.36088 18.4354C7.36088 19.7423 7.36088 21.049 7.36088 22.3556L7.36035 22.6169Z" fill="#2263E3"/>
<path d="M17.582 10.0495C17.582 9.49274 17.5698 8.93539 17.5846 8.37859C17.62 7.03875 18.3913 6.18214 19.6773 6.04926C20.1144 5.99635 20.5567 6.01656 20.9876 6.10911C22.0372 6.35346 22.6448 7.03491 22.7203 8.25504C22.7979 9.50098 22.8169 10.7579 22.705 12.0038C22.6031 13.1394 21.9865 13.8027 20.9074 14.0235C20.6867 14.0685 20.6334 14.1564 20.654 14.3617C20.6636 14.4897 20.6625 14.6183 20.6508 14.7461C20.6308 15.0349 20.4476 15.22 20.1757 15.2348C20.0469 15.2453 19.9193 15.2022 19.8209 15.115C19.7226 15.0279 19.6614 14.9037 19.6509 14.7697C19.6368 14.5968 19.6349 14.423 19.6451 14.2497C19.6509 14.113 19.6029 14.069 19.4714 14.0416C18.2329 13.7797 17.611 13.0093 17.5799 11.6952C17.5672 11.1461 17.5799 10.597 17.5799 10.0512L17.582 10.0495ZM19.6483 12.4931C19.6483 12.2844 19.6383 12.1307 19.6483 11.9791C19.672 11.6777 19.8647 11.5074 20.1604 11.5113C20.456 11.5151 20.6276 11.6826 20.6524 11.9978C20.664 12.1466 20.6281 12.3009 20.6825 12.4541C20.9845 12.2493 21.0996 11.9857 21.1048 11.4695C21.1101 10.6662 21.108 9.86229 21.1048 9.05839C21.1107 8.8304 21.1028 8.60225 21.0811 8.3753C21.0045 7.76523 20.6725 7.49178 20.0685 7.51923C19.5649 7.5423 19.2354 7.8789 19.227 8.44723C19.2106 9.52459 19.2154 10.6025 19.227 11.6799C19.2296 11.9863 19.322 12.2734 19.6483 12.4931Z" fill="#2263E3"/>
<path d="M13.4851 5.95831C13.7047 5.97149 13.9228 5.99565 14.1244 6.09889C14.3261 6.20212 14.4692 6.34049 14.5362 6.56892C15.1824 8.76537 15.8307 10.9618 16.4811 13.1583C16.5339 13.3411 16.5213 13.5081 16.3909 13.6404C16.2465 13.7949 16.0675 13.9097 15.8699 13.9746C15.6724 14.0395 15.4625 14.0524 15.259 14.0121C15.0647 13.9787 14.9538 13.8474 14.9042 13.653C14.8102 13.2829 14.7083 12.9145 14.6212 12.5427C14.5859 12.3928 14.5214 12.3423 14.3694 12.3445C13.7549 12.3544 13.1398 12.3527 12.5248 12.3445C12.387 12.3445 12.3253 12.3868 12.292 12.5306C12.2075 12.8936 12.093 13.2494 12.0122 13.6135C11.9473 13.9056 11.7662 14.0209 11.5048 14.0358C11.2756 14.045 11.0479 13.9932 10.8433 13.8853C10.4273 13.6799 10.3365 13.468 10.4706 13.01C11.0711 10.96 11.6715 8.90998 12.2719 6.85996C12.4704 6.18235 12.7999 5.93689 13.4851 5.95831ZM13.4487 8.09985L12.6811 11.0332C13.1662 11.0332 13.6219 11.0332 14.0775 11.0332C14.183 11.0332 14.21 11.003 14.1793 10.8893C13.9391 9.9855 13.7053 9.08056 13.4487 8.09985Z" fill="#2263E3"/>
<path d="M5.76601 9.98785C5.76601 8.89182 5.76601 7.79561 5.76601 6.69922C5.76601 6.26377 5.93917 6.05785 6.36204 6.04028C6.78491 6.02271 7.22257 6.02985 7.65336 6.0293C8.4347 6.0293 9.21639 6.0293 9.99843 6.0293C10.3954 6.0293 10.5792 6.19403 10.6224 6.60422C10.6523 6.81346 10.6228 7.02721 10.5375 7.21922C10.4319 7.44381 10.2582 7.52398 10.0243 7.52234C9.2324 7.51684 8.44315 7.52728 7.65283 7.5152C7.45539 7.5152 7.39784 7.56682 7.4047 7.77328C7.42001 8.2296 7.41685 8.68701 7.4047 9.14607C7.40048 9.32453 7.45011 9.38493 7.62538 9.37999C8.05512 9.36846 8.48591 9.37285 8.91617 9.37999C9.28572 9.38383 9.48687 9.6161 9.48898 10.0362C9.49109 10.4562 9.28995 10.6891 8.91406 10.6951C8.4838 10.7017 8.053 10.705 7.62274 10.6951C7.44536 10.6902 7.40365 10.755 7.40523 10.929C7.41262 11.7423 7.40893 12.5555 7.4084 13.3682C7.4084 13.7355 7.28592 13.9036 6.94804 13.9969C6.75345 14.0564 6.54799 14.0666 6.34884 14.0266C5.77128 13.8981 5.75597 13.6724 5.7602 13.2869C5.77445 12.1805 5.76601 11.0844 5.76601 9.98785Z" fill="#2263E3"/>
</g>
<defs>
<clipPath id="clip0_614_2001">
<rect width="27" height="25" fill="white" transform="translate(0.5 0.5)"/>
</clipPath>
</defs>
</svg>
