<svg width="19" height="22" viewBox="0 0 19 22" fill="none" xmlns="http://www.w3.org/2000/svg">
<mask id="mask0_287_411" style="mask-type:luminance" maskUnits="userSpaceOnUse" x="0" y="0" width="19" height="22">
<path d="M8.01086e-05 0.786774H18.9448V21.5H8.01086e-05V0.786774Z" fill="white"/>
</mask>
<g mask="url(#mask0_287_411)">
<path d="M0.600363 4.5789C1.62654 4.03717 2.96849 5.06484 3.25266 7.59823C3.42632 9.08799 3.44211 9.68549 4.04203 10.2511L9.37809 2.81826C9.59836 2.52169 9.92497 2.32397 10.2879 2.26739C10.6508 2.21081 11.0213 2.29986 11.3199 2.51552C11.5688 2.69855 11.7504 2.95986 11.8361 3.25836C11.9219 3.55686 11.9069 3.87564 11.7936 4.16462L12.283 3.4795C12.3922 3.32401 12.5308 3.19175 12.6907 3.09036C12.8507 2.98897 13.0288 2.92044 13.2151 2.88862C13.4013 2.8568 13.5919 2.86234 13.776 2.90496C13.9601 2.94757 14.1341 3.0264 14.288 3.13694C14.5979 3.36242 14.8074 3.70209 14.8709 4.08235C14.9345 4.4626 14.8469 4.85282 14.6274 5.16842L14.1774 5.80574C14.4225 5.55011 14.7452 5.38458 15.0942 5.33549C15.4433 5.28641 15.7986 5.35657 16.1035 5.53485C16.4117 5.76009 16.6194 6.09895 16.6814 6.47783C16.7435 6.85671 16.655 7.24504 16.435 7.5584L15.5194 8.85697C15.7225 8.58069 16.0255 8.39643 16.3625 8.34422C16.6994 8.29202 17.0432 8.37606 17.3191 8.57811C17.6015 8.78541 17.7907 9.09728 17.8455 9.44527C17.9003 9.79327 17.816 10.149 17.6112 10.4343L15.7956 12.9757C14.7063 14.4894 13.6538 16.0216 12.6382 17.5724C11.8116 18.9168 10.7111 20.0682 9.4097 20.9503C6.11015 22.9021 -0.117931 19.0702 0.726688 12.6491C1.19241 8.95257 -0.504747 5.20826 0.600363 4.5789Z" fill="url(#paint0_linear_287_411)"/>
<path d="M13.3798 18.3134C13.5448 18.3051 13.7087 18.2811 13.8692 18.2416C14.0429 18.1938 14.185 18.1779 14.3271 18.1301C14.6416 18.0337 14.9437 17.9 15.2269 17.7318C15.8208 17.42 16.3343 16.9726 16.7267 16.4253C17.1284 15.8943 17.399 15.2744 17.5161 14.6168C17.5796 14.2942 17.6114 13.9659 17.6108 13.637C17.6108 13.4697 17.6108 13.3262 17.6108 13.1589C17.6108 12.9916 17.5477 12.8403 17.5398 12.665L17.445 13.1351C17.4158 13.2932 17.3709 13.4481 17.3109 13.5971C17.2352 13.8874 17.1402 14.1721 17.0267 14.4495C16.8255 15.0005 16.5406 15.5166 16.1821 15.9791C15.8189 16.4559 15.3971 16.8842 14.927 17.2538C14.6981 17.4291 14.4376 17.6043 14.1376 17.7716C14.0074 17.867 13.8702 17.9523 13.7271 18.0266L13.3482 18.3213" fill="white"/>
<path d="M15.1087 19.0622C15.2395 19.0822 15.3725 19.0822 15.5033 19.0622C15.6292 19.0776 15.7564 19.0776 15.8823 19.0622C16.1515 19.0414 16.4169 18.9852 16.6716 18.8949C17.1661 18.7254 17.6204 18.4541 18.0057 18.0982C18.4017 17.7483 18.6917 17.2927 18.8424 16.7838C18.9306 16.5418 18.9915 16.2906 19.0239 16.0349C19.0239 15.9313 19.0239 15.7879 19.0239 15.6525C19.0239 15.517 19.0239 15.4453 18.9687 15.3099C18.8976 15.4374 18.8581 15.5489 18.8108 15.6366C18.7634 15.7242 18.7003 15.8755 18.6529 15.9632C18.6055 16.0508 18.4398 16.3535 18.3214 16.5367C18.0863 16.9181 17.8023 17.2663 17.4768 17.5724C17.153 17.8715 16.8015 18.1383 16.4269 18.3691C16.2454 18.4886 16.0322 18.5842 15.8191 18.7117C15.7323 18.7674 15.5981 18.8073 15.5112 18.863C15.4244 18.9188 15.2587 18.9666 15.1324 19.0383" fill="white"/>
<path d="M9.20428 1.32851C9.03692 1.32733 8.87 1.34605 8.70698 1.38429C8.52543 1.38429 8.38336 1.44004 8.23338 1.47191C7.91111 1.56045 7.59471 1.66952 7.28613 1.79852C6.67869 2.08114 6.13985 2.49445 5.7074 3.00946C5.27447 3.52211 4.96147 4.12663 4.79171 4.77807C4.71768 5.0997 4.67539 5.42791 4.66544 5.75795C4.64576 5.92199 4.64576 6.08783 4.66544 6.25188C4.66544 6.42714 4.66545 6.57055 4.7286 6.71395L4.87068 6.25985C4.90358 6.10426 4.95115 5.95219 5.01276 5.80575L5.32852 4.94534C5.82156 3.84795 6.61597 2.91623 7.61765 2.26059C7.87025 2.07736 8.14653 1.93395 8.40702 1.75072C8.54623 1.67049 8.69137 1.60128 8.84116 1.54363L9.23584 1.32851" fill="white"/>
<path d="M6.37061 0.499996C6.24995 0.498454 6.12992 0.51726 6.01543 0.55572C5.8889 0.56615 5.76419 0.592953 5.6444 0.635415C5.40775 0.717906 5.17584 0.813642 4.94976 0.922202C4.50709 1.15562 4.12773 1.49475 3.84468 1.91005C3.53737 2.3179 3.3463 2.80274 3.29211 3.31219C3.27633 3.55358 3.27633 3.79578 3.29211 4.03718C3.29211 4.14871 3.33948 4.29208 3.34737 4.40361C3.37413 4.52298 3.41658 4.63818 3.47365 4.74617L3.63153 4.08497C3.68679 3.85394 3.76571 3.67069 3.81307 3.47153C3.95532 3.07409 4.15193 2.69866 4.39719 2.35618C4.65391 2.01609 4.93915 1.69891 5.24972 1.40815C5.41549 1.28069 5.59707 1.11341 5.77073 0.977974C5.85957 0.897441 5.95761 0.827897 6.06279 0.770834C6.14607 0.660337 6.25079 0.568193 6.37061 0.499996Z" fill="white"/>
<path d="M14.0905 5.95713C14.3057 5.63353 14.6391 5.40908 15.0178 5.33294C15.3965 5.2568 15.7896 5.33515 16.1113 5.55083C16.1857 5.59531 16.2523 5.65184 16.3086 5.71814C15.9917 5.59207 15.6429 5.57279 15.3142 5.66325C14.9856 5.7537 14.6948 5.94905 14.4852 6.22005L10.3173 12.0516L9.52793 12.3543L14.0905 5.95713Z" fill="#F7931E"/>
<path d="M12.2984 3.5034C12.4575 3.26883 12.6818 3.08699 12.943 2.98068C13.2043 2.87437 13.4908 2.84834 13.7667 2.9059C14.0203 2.95487 14.2522 3.08308 14.4297 3.27238L14.4771 3.32018C14.1726 3.1772 13.8285 3.1451 13.5032 3.22935C13.178 3.31359 12.8917 3.50898 12.6931 3.78226L7.95689 10.3706L7.16753 10.6733L12.2984 3.5034Z" fill="#F7931E"/>
<path d="M17.3345 8.60204C17.4005 8.64847 17.4614 8.7019 17.5161 8.76138C17.2322 8.63014 16.911 8.6062 16.6111 8.69394C16.3111 8.78168 16.0525 8.97523 15.8821 9.23936L12.4484 14.0193L11.659 14.3221L15.4953 8.95257C15.5833 8.80814 15.6988 8.68262 15.8349 8.58322C15.9711 8.48382 16.1253 8.41248 16.2888 8.37326C16.4522 8.33405 16.6217 8.32774 16.7876 8.35469C16.9535 8.38164 17.1126 8.44131 17.2556 8.53032L17.3345 8.60204Z" fill="#F7931E"/>
<path d="M0.600313 4.57893C0.785387 4.47465 0.996762 4.42752 1.20814 4.44347C1.02099 4.50094 0.85752 4.61844 0.742441 4.7781C0.142524 5.57476 0.742416 7.23974 0.963438 8.72154C1.26292 10.0284 1.30318 11.3822 1.08186 12.7048C-0.173227 18.1938 4.90237 21.7868 8.41504 21.3805C4.91026 22.1772 -0.678442 18.5125 0.616116 12.7925C0.854338 11.4711 0.813974 10.1138 0.497692 8.80921C0.21352 7.12825 -0.504797 5.2083 0.600313 4.57893Z" fill="#F7931E"/>
<path d="M4.1523 10.3627L4.02603 10.2512L9.36214 2.84221C9.4657 2.6904 9.5979 2.56066 9.75118 2.46046C9.90447 2.36026 10.0758 2.29153 10.2555 2.25823C10.4351 2.22494 10.6195 2.22772 10.798 2.2664C10.9766 2.30508 11.1458 2.37894 11.2961 2.4837C11.3614 2.53109 11.4198 2.58736 11.4697 2.65097C11.1744 2.51483 10.8419 2.48486 10.5273 2.56602C10.2128 2.64719 9.93531 2.83461 9.74102 3.0971L4.45227 10.4583C6.402 11.3107 8.5096 14.6169 5.93627 17.3255C7.98073 14.4814 5.77051 11.6692 4.35755 10.514L4.14445 10.3468L4.1523 10.3627Z" fill="#F7931E"/>
</g>
<defs>
<linearGradient id="paint0_linear_287_411" x1="9.06158" y1="0.643074" x2="9.06158" y2="19.8745" gradientUnits="userSpaceOnUse">
<stop stop-color="#FFE500"/>
<stop offset="1" stop-color="#F7C600"/>
</linearGradient>
</defs>
</svg>
