<svg width="18" height="9" viewBox="0 0 18 9" fill="none" xmlns="http://www.w3.org/2000/svg">
<path d="M2.41933 5.22591H17.204C17.6004 5.22591 17.8655 5.04785 17.9668 4.71717C17.9982 4.61309 18.0064 4.50307 17.991 4.39525C17.9755 4.28744 17.9368 4.18459 17.8776 4.09432C17.8185 4.00405 17.7404 3.92866 17.6492 3.87375C17.558 3.81884 17.456 3.7858 17.3508 3.77708C17.2804 3.77163 17.21 3.7749 17.1396 3.7749H2.42144C2.49184 3.6975 2.5369 3.64554 2.58442 3.59685C3.34384 2.81581 4.10338 2.03525 4.86303 1.25518C5.06438 1.04878 5.12915 0.798768 5.05311 0.52332C4.97708 0.247873 4.79438 0.0799876 4.52509 0.019302C4.26319 -0.03993 4.04248 0.0494633 3.85626 0.242058C3.17171 0.946302 2.48645 1.64958 1.80049 2.35188C1.28115 2.88485 0.762503 3.41782 0.24457 3.95078C-0.077877 4.28474 -0.0824509 4.71063 0.239645 5.04276C1.44589 6.28554 2.65448 7.52615 3.86541 8.76457C4.14491 9.05055 4.536 9.07599 4.81972 8.83725C4.95119 8.72844 5.04036 8.57443 5.07093 8.40337C5.1015 8.2323 5.07144 8.0556 4.98624 7.90552C4.93477 7.82484 4.87401 7.7509 4.80529 7.68531C4.06348 6.92026 3.32084 6.15642 2.57738 5.39379C2.53232 5.35019 2.49184 5.30295 2.41933 5.22591Z" fill="#0A0F1A"/>
</svg>
