<svg width="20" height="19" viewBox="0 0 20 19" fill="none" xmlns="http://www.w3.org/2000/svg">
<path d="M12.2326 6.17796H12.5506C14.3064 6.17796 16.0622 6.17518 17.818 6.17796C18.911 6.18027 19.7783 6.81052 19.9247 7.82965C20.0499 8.70173 20.0499 9.59231 19.6686 10.4343C18.615 12.7588 17.5755 15.0898 16.5158 17.4115C16.036 18.4625 15.1785 18.9864 14.0156 18.9924C11.9558 19.0035 9.89514 18.9873 7.83538 18.9989C6.79635 19.0049 5.91212 18.6752 5.20005 17.9229C5.07808 17.7934 4.95049 17.5849 4.81399 17.5756C4.65591 17.5645 4.61932 17.829 4.51753 17.9654C4.21313 18.3789 3.7859 18.6889 3.29494 18.8525C2.80399 19.0161 2.27358 19.0253 1.77712 18.8787C0.739029 18.5661 0.0161643 17.67 0.0105353 16.6065C-0.0041628 13.9301 -0.0041628 11.2534 0.0105353 8.57642C0.0161643 7.47129 0.810799 6.52106 1.87938 6.26442C2.98924 5.99762 4.12865 6.47574 4.66951 7.45649C4.77881 7.6544 4.82571 7.62249 4.96503 7.49117C6.09929 6.41979 6.98211 5.15282 7.88745 3.89925C8.60515 2.90324 9.33599 1.91602 10.0452 0.914462C10.5265 0.234272 11.1537 -0.122238 11.9995 0.0359023C12.819 0.188494 13.2843 0.749847 13.5357 1.49339C13.7191 2.03578 13.6825 2.58187 13.4654 3.11502C13.0901 4.03304 12.7178 4.95167 12.3485 5.87092C12.3128 5.96294 12.2786 6.05634 12.2326 6.17796ZM4.98567 12.5748C4.98567 13.7363 4.9899 14.8979 4.98145 16.0594C4.97644 16.1421 4.99075 16.2249 5.02328 16.3013C5.05581 16.3777 5.10569 16.4457 5.16909 16.5001C5.42615 16.7359 5.67461 16.9807 5.91447 17.2344C6.41873 17.7652 7.03089 18.0038 7.77111 17.9992C9.82353 17.9859 11.8759 17.9859 13.9284 17.9992C14.7727 18.0057 15.3211 17.6418 15.6579 16.8867C16.596 14.7874 17.5342 12.689 18.5019 10.604C18.8378 9.88178 19.0179 9.15581 18.9846 8.35909C18.9513 7.56238 18.5784 7.17489 17.7688 7.17489C15.732 7.17489 13.6947 7.16425 11.658 7.18229C11.2053 7.18645 10.8314 6.90485 11.0716 6.34211C11.574 5.1616 12.0407 3.96584 12.5258 2.77793C12.6454 2.48431 12.697 2.18652 12.6074 1.8781C12.4883 1.46842 12.2865 1.11098 11.8311 1.00787C11.3756 0.904751 11.0908 1.15907 10.846 1.50864C10.3272 2.24848 9.78537 2.97121 9.25906 3.70551C7.98502 5.48251 6.741 7.28355 5.08887 8.75445C4.99506 8.83722 4.98614 8.93247 4.98614 9.04391C4.98739 10.2209 4.98724 11.3978 4.98567 12.5748ZM0.994679 12.5868C0.994679 13.8862 0.992334 15.185 0.994679 16.4844C0.994679 17.3417 1.63921 17.9895 2.48356 17.9932C3.33965 17.9969 3.99074 17.3486 3.99121 16.4798C3.9934 13.8817 3.9934 11.2835 3.99121 8.68509C3.99339 8.51635 3.96805 8.34836 3.91616 8.18754C3.68161 7.49163 2.99299 7.07779 2.24761 7.18784C1.55524 7.28956 1.00265 7.91149 0.998902 8.62127C0.990459 9.94235 0.995148 11.2648 0.994679 12.5877V12.5868Z" fill="black"/>
</svg>
