<svg width="25" height="23" viewBox="0 0 25 23" fill="none" xmlns="http://www.w3.org/2000/svg">
<g clip-path="url(#clip0_288_543)">
<path d="M12.4729 22.4938C9.60032 22.4938 6.72774 22.4938 3.85516 22.4938C3.05279 22.5151 2.2646 22.2811 1.60608 21.8262C0.947549 21.3712 0.453289 20.7191 0.195699 19.9654C0.0752401 19.641 0.0100928 19.299 0.00292969 18.9534C0.00292969 15.7922 0.00292969 12.631 0.00292969 9.46983C0.0125301 8.89439 0.246095 8.34488 0.654808 7.93618C1.06352 7.52747 1.61575 7.29119 2.19608 7.27672C3.27685 7.25479 4.35762 7.27672 5.4384 7.27672C6.07043 7.27672 6.07043 7.27672 6.07043 6.63132C6.07043 5.46584 6.07043 4.30349 6.07043 3.13802C6.07043 1.60911 7.088 0.54075 8.62067 0.534484C13.2282 0.515686 17.8346 0.515686 22.44 0.534484C23.9727 0.534484 24.9903 1.60597 24.9934 3.13488C24.9934 8.31479 24.9934 13.4947 24.9934 18.6746C25.012 19.1834 24.9246 19.6906 24.7369 20.1645C24.5491 20.6384 24.265 21.0689 23.9021 21.4293C23.5393 21.7896 23.1055 22.072 22.6278 22.2589C22.1501 22.4458 21.6387 22.5332 21.1254 22.5157C18.2434 22.5073 15.3592 22.5 12.4729 22.4938ZM6.7309 21.04C6.86047 21.04 6.95211 21.0588 7.04692 21.0588H21.1728C21.3699 21.0653 21.5671 21.0495 21.7606 21.0118C22.8951 20.7455 23.584 19.8307 23.584 18.5932V3.18501C23.5921 3.08073 23.5921 2.97599 23.584 2.87171C23.5556 2.61033 23.4297 2.36892 23.2308 2.19499C23.032 2.02105 22.7747 1.92717 22.5096 1.93181H8.56379C8.29439 1.92879 8.03414 2.02863 7.83696 2.21065C7.70581 2.34103 7.60525 2.49845 7.54244 2.67174C7.47963 2.84502 7.45611 3.02989 7.47354 3.21321C7.47354 8.30122 7.47354 13.3892 7.47354 18.4772C7.4841 18.7998 7.46613 19.1227 7.41982 19.4422C7.30333 20.0161 7.06881 20.56 6.7309 21.04ZM6.07043 13.8842C6.07043 12.2457 6.07043 10.6071 6.07043 8.97168C6.07043 8.71478 6.00723 8.63645 5.75441 8.63958C4.65152 8.65525 3.54231 8.63958 2.44257 8.63958C2.3052 8.62437 2.16614 8.63984 2.03559 8.68487C1.90504 8.72989 1.78631 8.80332 1.68812 8.89976C1.58993 8.99621 1.51477 9.11323 1.46814 9.24224C1.42152 9.37124 1.40462 9.50896 1.41868 9.64528C1.41868 10.1403 1.41868 10.6384 1.41868 11.1335C1.41868 13.6399 1.41868 16.1463 1.41868 18.6527C1.41577 18.9559 1.47314 19.2567 1.5875 19.538C1.70186 19.8192 1.87098 20.0754 2.0852 20.2918C2.29941 20.5083 2.55453 20.6808 2.83599 20.7995C3.11745 20.9182 3.41974 20.9808 3.72559 20.9836C4.03145 20.9865 4.33488 20.9296 4.61856 20.8163C4.90224 20.7029 5.16062 20.5352 5.37895 20.3228C5.59727 20.1105 5.77127 19.8575 5.891 19.5785C6.01073 19.2995 6.07385 18.9998 6.07675 18.6965C6.07675 17.1018 6.07043 15.4977 6.07043 13.8842Z" fill="#2263E3"/>
<path d="M6.94455 18.375V1.87502L7.40752 1.41669H23.6112L24.0742 2.79169L24.5371 19.2917L22.6853 21.5834L8.33344 22.0417L5.55566 21.5834L6.94455 18.375Z" fill="#2263E3"/>
<path d="M15.5353 4.77344H19.8647C20.4461 4.77344 20.7211 5.03975 20.7242 5.61309C20.7242 6.94148 20.7242 8.26883 20.7242 9.59514C20.7402 9.71078 20.7288 9.82851 20.691 9.93903C20.6531 10.0496 20.5899 10.1498 20.5062 10.2319C20.4224 10.314 20.3206 10.3756 20.2087 10.4119C20.0968 10.4482 19.978 10.4582 19.8615 10.4411C16.9773 10.4411 14.0921 10.4411 11.2058 10.4411C11.0893 10.4578 10.9705 10.4473 10.8587 10.4106C10.747 10.3739 10.6454 10.3119 10.562 10.2295C10.4786 10.1472 10.4157 10.0467 10.3782 9.93601C10.3408 9.82536 10.3299 9.70758 10.3463 9.59201C10.3463 8.26361 10.3463 6.93626 10.3463 5.60995C10.3463 5.03661 10.6244 4.77344 11.209 4.77344H15.5353ZM15.5353 9.00927H18.9925C19.1663 9.00927 19.3085 9.00927 19.3085 8.76803C19.3085 7.98477 19.3085 7.20152 19.3085 6.41827C19.3085 6.20836 19.2168 6.17389 19.0336 6.17389C16.7235 6.17389 14.4102 6.17389 12.0812 6.17389C11.8379 6.17389 11.7936 6.26475 11.7968 6.48719C11.7968 7.22345 11.8126 7.96284 11.7968 8.6991C11.7968 8.95601 11.86 9.0312 12.1128 9.02807C13.2505 8.99987 14.3881 9.00927 15.5163 9.00927H15.5353Z" fill="white"/>
<path d="M15.5163 13.6335C14.0784 13.6335 12.6374 13.6335 11.1963 13.6335C10.5327 13.6335 10.1693 13.0978 10.4569 12.5746C10.53 12.449 10.6379 12.3468 10.7679 12.2801C10.8978 12.2135 11.0443 12.1852 11.19 12.1986H19.6561C19.7834 12.1892 19.9112 12.1892 20.0385 12.1986C20.2217 12.2157 20.3914 12.302 20.5123 12.4396C20.6332 12.5773 20.6961 12.7557 20.688 12.9381C20.6798 13.1204 20.6013 13.2927 20.4687 13.4192C20.336 13.5457 20.1593 13.6169 19.9753 13.6179C19.2421 13.6179 18.5089 13.6179 17.7631 13.6179L15.5163 13.6335Z" fill="white"/>
<path d="M15.5163 16.8198H11.1648C10.5738 16.8198 10.2167 16.3624 10.4032 15.8799C10.4386 15.763 10.5078 15.6589 10.6021 15.5805C10.6964 15.502 10.8118 15.4525 10.9341 15.4382C11.0721 15.4178 11.2116 15.4083 11.3512 15.41H19.7162C19.8078 15.41 19.8994 15.41 19.9942 15.41C20.1837 15.4162 20.3628 15.4968 20.4923 15.634C20.6218 15.7712 20.691 15.9537 20.6847 16.1415C20.6785 16.3293 20.5972 16.5069 20.4588 16.6353C20.3204 16.7637 20.1363 16.8323 19.9468 16.8261C18.4711 16.823 16.9953 16.8198 15.5163 16.8198Z" fill="white"/>
</g>
<defs>
<clipPath id="clip0_288_543">
<rect width="25" height="22" fill="white" transform="translate(0 0.5)"/>
</clipPath>
</defs>
</svg>
