<svg width="26" height="27" viewBox="0 0 26 27" fill="none" xmlns="http://www.w3.org/2000/svg">
<path d="M25.0552 19.3582C23.9452 22.088 23.1805 22.5899 20.1218 22.5899C14.7198 22.5899 9.31768 22.5899 3.9156 22.5899C3.43051 22.618 2.94457 22.5511 2.48555 22.3929C2.02654 22.2346 1.60344 21.9882 1.24038 21.6676C0.87733 21.3471 0.581463 20.9587 0.369648 20.5246C0.157832 20.0906 0.0342327 19.6194 0.00590592 19.1379C-0.0213058 18.6604 0.045695 18.1822 0.203209 17.7302C0.443439 16.9412 0.971062 16.2691 1.68324 15.845C2.02049 15.6619 2.29331 15.3809 2.46523 15.0396C2.63715 14.6984 2.69994 14.3131 2.64522 13.9354C2.53145 12.0687 2.59757 10.1955 2.8426 8.34127C3.31543 5.96527 4.66498 3.85007 6.62696 2.41C8.58893 0.969924 11.0219 0.308761 13.4494 0.55598C15.7879 0.797835 17.9626 1.86056 19.5816 3.55274C21.2007 5.24492 22.1577 7.45537 22.2802 9.78578C22.3419 11.2914 22.2802 12.797 22.2802 14.3027C22.2425 14.5382 22.2749 14.7795 22.3735 14.997C22.4721 15.2144 22.6326 15.3986 22.8351 15.5268C23.3664 15.8319 23.8309 16.2392 24.2015 16.7247C24.5721 17.2103 24.8414 17.7644 24.9935 18.3545L25.0552 19.3582ZM12.512 20.0315H20.8618C21.5155 20.0315 22.0951 19.8846 22.3048 19.1747C22.5145 18.4647 22.0828 18.1097 21.5401 17.7914C20.9397 17.4344 20.4504 16.9196 20.1261 16.304C19.8018 15.6884 19.6552 14.9958 19.7025 14.3027C19.7025 12.8705 19.7025 11.4505 19.7025 10.0305C19.6486 8.1812 18.8768 6.42406 17.5484 5.12613C16.22 3.8282 14.4377 3.08987 12.5737 3.06538C10.6906 3.06468 8.88152 3.79352 7.53164 5.09669C6.18177 6.39987 5.39767 8.17448 5.34626 10.0428C5.34626 11.5117 5.34626 12.9684 5.34626 14.4374C5.38073 15.0716 5.24889 15.7039 4.96354 16.2725C4.6782 16.841 4.24908 17.3264 3.71823 17.6812C3.16322 18.0607 2.58358 18.4279 2.83025 19.2113C3.07692 19.9948 3.84163 20.0315 4.55697 20.0315H12.512Z" fill="#C3FD08"/>
<path d="M12.4505 26.4948H8.75048C7.89946 26.4948 7.30747 26.1765 7.29513 25.2707C7.2828 24.3648 7.81315 23.9609 8.68882 23.9609H16.2862C17.1619 23.9609 17.7046 24.3526 17.6923 25.2707C17.6799 26.1888 17.0756 26.4948 16.2246 26.4948H12.4505Z" fill="#C3FD08"/>
</svg>
