<svg width="28" height="30" viewBox="0 0 28 30" fill="none" xmlns="http://www.w3.org/2000/svg">
<path d="M-0.000489862 13.1937C-0.000489862 10.1046 -0.00158494 7.01613 -0.000489862 3.92704C0.00115275 1.9574 1.39847 0.501842 3.29021 0.501275C7.70939 0.499575 12.128 0.499575 16.5472 0.501275C18.1438 0.501842 19.4064 1.54306 19.7552 3.14939C19.8051 3.37781 19.8291 3.617 19.8302 3.85109C19.8357 5.99531 19.8352 8.13954 19.8324 10.2838C19.8319 10.854 19.5165 11.2445 19.0358 11.2904C18.543 11.3374 18.1203 10.9668 18.0874 10.4544C18.0809 10.3506 18.083 10.2469 18.083 10.1426C18.083 8.10213 18.083 6.0622 18.083 4.0217C18.0825 2.92493 17.4972 2.31562 16.447 2.31562C12.0919 2.31562 7.73677 2.31562 3.38165 2.31562C2.34133 2.31562 1.75163 2.92267 1.75163 3.99449C1.75163 10.1341 1.75163 16.2743 1.75163 22.4139C1.75163 23.4665 2.34626 24.0787 3.36796 24.0792C6.30167 24.0792 9.23538 24.0792 12.1696 24.0798C12.2786 24.0798 12.3897 24.0741 12.4971 24.0923C12.9241 24.1642 13.2439 24.5735 13.2291 25.0167C13.2132 25.4753 12.8595 25.8562 12.4133 25.8913C12.3317 25.8975 12.2496 25.8941 12.1674 25.8941C9.22443 25.8941 6.28141 25.8953 3.33894 25.8941C1.38588 25.8941 0.000605214 24.4561 5.76761e-05 22.4315C-0.000489862 19.3521 5.76761e-05 16.2726 5.76761e-05 13.1932L-0.000489862 13.1937Z" fill="#2263E3"/>
<path d="M13.9964 18.3201C13.9964 17.4795 13.9958 16.6395 13.9964 15.7989C13.9969 15.2225 14.1842 14.9482 14.7027 14.7651C16.6645 14.0719 18.6274 13.3815 20.5876 12.6838C20.8581 12.5874 21.1133 12.5812 21.3854 12.6781C23.3631 13.381 25.3441 14.0747 27.3224 14.7764C27.7982 14.9453 27.992 15.2355 27.9925 15.753C27.9942 17.2449 27.9723 18.7373 27.998 20.2285C28.0369 22.4895 27.2495 24.4087 25.8226 26.0751C24.6268 27.4711 23.1775 28.5152 21.5737 29.3456C21.1839 29.5474 20.8285 29.5547 20.4321 29.3495C18.3882 28.2902 16.5994 26.9157 15.3127 24.9222C14.4404 23.5704 13.9854 22.0797 13.9953 20.4445C13.9997 19.7365 13.9958 19.028 13.9958 18.3201H13.9964ZM15.7468 18.6845C15.7468 19.2797 15.7479 19.8743 15.7468 20.4694C15.7441 21.4914 15.9806 22.4521 16.4559 23.3442C17.4754 25.26 19.0726 26.5263 20.8839 27.5488C20.9945 27.6112 21.0738 27.5703 21.1615 27.521C22.3463 26.8567 23.437 26.0592 24.3563 25.0305C25.5297 23.7183 26.2601 22.2118 26.2448 20.3765C26.2344 19.1108 26.2382 17.8457 26.247 16.58C26.2486 16.3799 26.1972 16.2836 26.0061 16.2167C24.3936 15.6567 22.7854 15.0853 21.1762 14.5163C21.0613 14.4755 20.9523 14.4686 20.8329 14.5117C19.2073 15.0899 17.5822 15.6674 15.9527 16.2337C15.7753 16.2955 15.7414 16.3862 15.7436 16.559C15.7518 17.267 15.7468 17.9755 15.7468 18.684V18.6845Z" fill="#2263E3"/>
<path d="M9.92548 10.179C11.7378 10.179 13.5507 10.1824 15.3631 10.1768C15.7436 10.1756 16.0393 10.3105 16.2244 10.6602C16.4899 11.1619 16.2244 11.8046 15.6905 11.9503C15.569 11.9832 15.4386 11.9934 15.3122 11.9934C11.7143 11.9956 8.11696 11.9956 4.51909 11.9945C4.01262 11.9945 3.68464 11.7825 3.5483 11.375C3.36214 10.8178 3.72954 10.2323 4.29624 10.1853C4.39589 10.1768 4.49664 10.179 4.59684 10.179C6.37305 10.179 8.14927 10.179 9.92493 10.179H9.92548Z" fill="#2263E3"/>
<path d="M7.56989 16.8259C6.54162 16.8259 5.5128 16.827 4.48452 16.8259C3.90303 16.8253 3.50497 16.4603 3.50005 15.9281C3.49512 15.3811 3.89318 15.0121 4.49273 15.0115C6.57721 15.011 8.66114 15.0098 10.7456 15.0121C11.1776 15.0121 11.5242 15.2762 11.6315 15.6696C11.7334 16.0414 11.5927 16.4393 11.2789 16.666C11.1081 16.789 10.9164 16.8276 10.7106 16.827C9.66368 16.8242 8.61734 16.8259 7.57044 16.8259H7.56989Z" fill="#2263E3"/>
<path d="M6.98409 7.14837C6.14581 7.14837 5.30753 7.15064 4.46925 7.14724C3.8894 7.14497 3.49463 6.77031 3.49956 6.23582C3.50449 5.70982 3.89269 5.33573 4.45665 5.33403C6.15128 5.33006 7.84591 5.33006 9.54054 5.33403C10.0465 5.33516 10.4095 5.63557 10.4878 6.09638C10.5579 6.51185 10.3186 6.93412 9.9293 7.09226C9.78858 7.14951 9.64403 7.14724 9.49893 7.14724C8.66065 7.14837 7.82237 7.14781 6.98409 7.14724V7.14837Z" fill="#2263E3"/>
<path d="M20.7358 24.082C20.473 24.0786 20.2638 23.9959 20.0952 23.8219C19.3144 23.0159 18.5314 22.2122 17.7588 21.3977C17.4051 21.0247 17.4095 20.4817 17.7429 20.124C18.0819 19.7607 18.6234 19.7488 18.9924 20.1178C19.477 20.603 19.9555 21.0955 20.4204 21.6011C20.5819 21.7763 20.652 21.7428 20.7779 21.5671C21.6721 20.3162 22.5771 19.0738 23.4762 17.8262C23.7001 17.515 23.9975 17.3892 24.3599 17.4499C24.6819 17.5037 24.9042 17.7066 25.0186 18.0206C25.1462 18.3715 25.0515 18.6804 24.839 18.9723C23.8201 20.374 22.8066 21.7797 21.7903 23.1842C21.6595 23.3656 21.5297 23.5475 21.395 23.7261C21.222 23.9556 20.9904 24.069 20.7358 24.082Z" fill="#2263E3"/>
</svg>
