<svg width="20" height="24" viewBox="0 0 20 24" fill="none" xmlns="http://www.w3.org/2000/svg">
<path d="M10.2994 23.9952C8.94365 23.9705 7.5867 24.0359 6.23211 23.9628C3.63673 23.8226 1.34641 21.8599 0.950417 19.4548C0.45469 16.4434 2.44698 13.7607 5.62726 13.1595C5.98219 13.0924 6.34123 13.0699 6.7032 13.0704C9.11261 13.0721 11.5226 13.0666 13.932 13.0726C17.4174 13.082 20.0708 15.8443 19.7352 19.1052C19.4683 21.6967 17.1393 23.8144 14.3661 23.9644C13.0115 24.0375 11.6546 23.971 10.2988 23.9957L10.2994 23.9952ZM10.3158 22.2111C11.6229 22.2111 12.9329 22.26 14.2371 22.2001C16.3449 22.1034 17.9489 20.3985 17.8826 18.4094C17.8169 16.4242 16.1032 14.8413 13.9889 14.833C11.5402 14.8237 9.0909 14.8237 6.64218 14.833C4.52845 14.8413 2.81423 16.4247 2.74853 18.4094C2.68282 20.3979 4.28733 22.1023 6.39461 22.1996C7.69876 22.2595 9.00818 22.2106 10.3158 22.2106V22.2111Z" fill="#828282"/>
<path d="M4.87503 5.48513C4.88462 2.72569 7.12259 0.495977 9.87853 0.500005C12.6476 0.504034 14.8846 2.74986 14.875 5.51736C14.8654 8.28788 12.6224 10.51 9.84622 10.5C7.0923 10.4899 4.86544 8.24357 4.87503 5.48513ZM9.88156 2.11337C8.01617 2.10834 6.50012 3.61042 6.48902 5.47556C6.4774 7.35581 7.98285 8.88156 9.85582 8.8871C11.7389 8.89314 13.2549 7.39156 13.2615 5.51383C13.2681 3.6356 11.7601 2.11841 9.88207 2.11337H9.88156Z" fill="#828282"/>
</svg>
