<svg width="25" height="25" viewBox="0 0 25 25" fill="none" xmlns="http://www.w3.org/2000/svg">
<path d="M0.500488 12.4939V6.61357C0.500488 3.63586 2.416 1.25379 5.31908 0.620607C5.66213 0.544184 6.01244 0.505 6.3639 0.503733C10.4573 0.503733 14.5502 0.494815 18.6436 0.506549C21.4486 0.514529 23.9776 2.7126 24.4094 5.48191C24.4692 5.85949 24.4995 6.24115 24.5 6.62342C24.4981 10.5515 24.4981 14.4795 24.5 18.4075C24.5 20.2418 23.8255 21.7828 22.455 23.0027C21.3702 23.9672 20.086 24.4821 18.6371 24.4887C14.5441 24.5075 10.451 24.5086 6.3578 24.492C3.55376 24.4836 1.03041 22.2902 0.592016 19.5166C0.531465 19.1388 0.50086 18.7568 0.500488 18.3742C0.502992 16.4144 0.502992 14.4543 0.500488 12.4939ZM12.4869 22.4915C14.4476 22.4915 16.4083 22.4915 18.3691 22.4915C18.6888 22.4974 19.0082 22.4704 19.3224 22.4108C21.1478 22.0315 22.5141 20.3657 22.4995 18.4038C22.4733 14.4676 22.4916 10.5314 22.492 6.59526C22.4977 6.29081 22.4718 5.98658 22.4146 5.68749C22.0288 3.84004 20.3634 2.48918 18.416 2.50092C14.4709 2.52579 10.5258 2.50796 6.58075 2.50937C6.38566 2.50425 6.19044 2.51209 5.99638 2.53283C3.89218 2.81446 2.48453 4.62108 2.4972 6.56945C2.52302 10.5211 2.50518 14.4732 2.50424 18.4249C2.49732 18.7216 2.52329 19.0182 2.58169 19.3092C3.00835 21.2101 4.57512 22.4784 6.53334 22.4873C8.51926 22.4967 10.5033 22.4897 12.4878 22.4897L12.4869 22.4915Z" fill="black"/>
<path d="M15.6271 13.4927C15.0024 13.4927 14.3776 13.5007 13.7534 13.4875C13.5497 13.4838 13.4877 13.5345 13.4891 13.7462C13.4994 14.9877 13.498 16.2287 13.4919 17.4702C13.4919 18.0391 13.0831 18.4723 12.5532 18.4953C11.973 18.5206 11.5131 18.0832 11.5098 17.4805C11.5032 16.247 11.4999 15.0135 11.514 13.78C11.5168 13.5345 11.4427 13.4852 11.2122 13.4871C9.97868 13.4983 8.74469 13.4969 7.51118 13.4894C6.93761 13.4861 6.50719 13.0567 6.50297 12.5094C6.49827 11.9485 6.92869 11.5105 7.51212 11.5073C8.74563 11.5007 9.97962 11.4988 11.2131 11.5101C11.4478 11.5124 11.5163 11.4598 11.5135 11.2158C11.5004 9.97475 11.5004 8.73357 11.5135 7.49223C11.5118 7.33341 11.5486 7.17653 11.6206 7.03496C11.6926 6.89338 11.7977 6.7713 11.9271 6.67911C12.0564 6.58693 12.2061 6.52736 12.3634 6.50549C12.5207 6.48361 12.681 6.50008 12.8306 6.55349C13.2446 6.6943 13.4948 7.06088 13.4962 7.54997C13.4994 8.76799 13.4962 9.98554 13.4962 11.2036C13.4962 11.5035 13.4962 11.5035 13.8022 11.5035C15.0437 11.5035 16.2852 11.4965 17.5267 11.5091C17.6832 11.5105 17.8372 11.5492 17.9758 11.622C18.1144 11.6948 18.2337 11.7995 18.3238 11.9275C18.4139 12.0556 18.4722 12.2032 18.4939 12.3583C18.5156 12.5133 18.5 12.6713 18.4485 12.8192C18.3858 13.0095 18.2658 13.1757 18.1049 13.2952C17.9439 13.4146 17.75 13.4813 17.5497 13.4861C16.9094 13.4955 16.2692 13.4885 15.629 13.4885L15.6271 13.4927Z" fill="black"/>
</svg>
