<svg width="23" height="25" viewBox="0 0 23 25" fill="none" xmlns="http://www.w3.org/2000/svg">
<path d="M0.501689 10.9959C0.501689 8.57188 0.49679 6.14851 0.501689 3.72453C0.506588 2.13068 1.52372 0.872573 3.0399 0.560813C3.31084 0.512376 3.58596 0.491772 3.86105 0.499322C7.72132 0.499322 11.5814 0.499322 15.4413 0.499322C17.2 0.499322 18.4559 1.51208 18.74 3.15635C18.7728 3.3891 18.7857 3.62425 18.7786 3.85921C18.7786 7.49006 18.7774 11.1209 18.7749 14.7517C18.7749 15.0032 18.8361 15.1207 19.0933 15.1939C21.2072 15.8088 22.6529 17.8749 22.4852 20.016C22.3014 22.3318 20.6267 24.1451 18.3824 24.4551C17.3959 24.5865 16.3933 24.4016 15.5177 23.9268C14.6421 23.4519 13.9383 22.7114 13.5068 21.8109C13.3984 21.581 13.2711 21.5164 13.0286 21.517C9.92235 21.5256 6.81586 21.5268 3.70919 21.5207C2.16789 21.5176 0.945044 20.5559 0.590492 19.0881C0.524297 18.7884 0.494282 18.4818 0.501091 18.175C0.502316 15.7821 0.502505 13.3891 0.501689 10.9959ZM1.76497 11.0051C1.76497 13.4389 1.76864 15.8727 1.76497 18.3066C1.76497 19.018 2.03685 19.5745 2.62226 19.9699C3.00192 20.2263 3.43485 20.2687 3.88003 20.2681C6.79239 20.2657 9.70494 20.2657 12.6177 20.2681C13.0316 20.2681 13.0317 20.2681 13.0274 19.8414C13.0011 17.3891 14.7566 15.3304 17.1577 15.0371C17.4792 14.9977 17.5465 14.903 17.5453 14.6011C17.5355 11.0014 17.5398 7.4017 17.5386 3.80201C17.5386 2.52791 16.7695 1.76112 15.5007 1.76112C11.6104 1.76112 7.72011 1.7808 3.82983 1.74821C2.69208 1.73837 1.73192 2.53284 1.75396 3.82785C1.79254 6.21862 1.76435 8.61247 1.76497 11.0051ZM21.2317 19.7719C21.2507 17.8607 19.7075 16.2669 17.8147 16.2472C17.3553 16.2409 16.8992 16.3257 16.4725 16.4968C16.0458 16.6678 15.657 16.9218 15.3283 17.2441C14.9996 17.5665 14.7375 17.9508 14.557 18.3751C14.3765 18.7993 14.2812 19.2552 14.2766 19.7165C14.2521 21.6166 15.8074 23.2215 17.699 23.2381C18.1583 23.2461 18.6147 23.1625 19.0416 22.9921C19.4685 22.8218 19.8575 22.5681 20.1861 22.2457C20.5146 21.9233 20.7762 21.5386 20.9557 21.114C21.1352 20.6894 21.229 20.2332 21.2317 19.7719Z" fill="#828282"/>
<path d="M9.66731 6.29804H5.3943C5.25162 6.29804 5.10834 6.30604 4.97423 6.24393C4.7048 6.12095 4.56518 5.91065 4.59029 5.61118C4.5941 5.48196 4.6415 5.35786 4.72472 5.25922C4.80793 5.16057 4.92202 5.09323 5.04833 5.06821C5.17748 5.0407 5.3095 5.02913 5.44145 5.03377C8.23909 5.03377 11.0371 5.03377 13.8356 5.03377C14.4081 5.03377 14.7021 5.24653 14.7057 5.66037C14.7094 6.0742 14.4143 6.29927 13.8484 6.29927C12.4543 6.29845 11.0606 6.29804 9.66731 6.29804Z" fill="#828282"/>
<path d="M9.63042 9.86022C8.18404 9.86022 6.73746 9.86022 5.29067 9.86022C4.86202 9.86022 4.58463 9.60135 4.58892 9.22256C4.58729 9.07812 4.63771 8.93795 4.73088 8.82789C4.82406 8.71782 4.95373 8.64529 5.09596 8.62364C5.21778 8.60806 5.34063 8.60209 5.46337 8.60581C8.25448 8.60581 11.046 8.60581 13.8379 8.60581C14.4172 8.60581 14.7062 8.81241 14.7093 9.22686C14.7123 9.64131 14.4209 9.86207 13.852 9.86207L9.63042 9.86022Z" fill="#828282"/>
<path d="M9.64556 12.171C11.0613 12.171 12.4773 12.171 13.8934 12.171C14.0459 12.171 14.1996 12.1563 14.3441 12.2282C14.6087 12.3635 14.7342 12.5824 14.6956 12.8806C14.657 13.1789 14.4697 13.3504 14.1825 13.4132C14.112 13.4239 14.0405 13.427 13.9694 13.4224H5.31989C4.92125 13.4224 4.66896 13.2496 4.59915 12.9403C4.50607 12.532 4.79082 12.1803 5.24457 12.1747C6.04063 12.1643 6.83361 12.171 7.62844 12.171C8.30081 12.1706 8.9732 12.1706 9.64556 12.171Z" fill="#828282"/>
<path d="M8.59467 16.9913C7.4759 16.9913 6.3565 16.9981 5.23773 16.9883C4.71233 16.984 4.41106 16.4803 4.66335 16.053C4.71892 15.9547 4.80067 15.8738 4.89941 15.8195C4.99816 15.7652 5.10999 15.7396 5.22242 15.7455C7.48813 15.7455 9.75937 15.7455 12.0275 15.7455C12.4182 15.7455 12.6711 16.0081 12.6668 16.3734C12.6625 16.7386 12.4108 16.9883 12.0128 16.9883C10.8732 16.9975 9.73426 16.9913 8.59467 16.9913Z" fill="#828282"/>
<path d="M18.3905 18.8373V19.6656C18.3905 19.997 18.2448 20.2313 17.9325 20.3543C17.5822 20.4914 17.235 20.6365 16.8811 20.7644C16.4996 20.9028 16.1463 20.7509 16.0238 20.4115C15.9013 20.0721 16.0618 19.7431 16.4433 19.5814C17.1279 19.2917 17.1273 19.2917 17.1279 18.5594C17.1279 18.3239 17.1187 18.0883 17.1322 17.8541C17.1536 17.4913 17.4255 17.2287 17.7592 17.2293C17.9195 17.2284 18.0738 17.2903 18.1894 17.4018C18.305 17.5132 18.3727 17.6656 18.3783 17.8264C18.401 18.1621 18.3832 18.5028 18.3832 18.8373H18.3905Z" fill="#828282"/>
</svg>
