<svg width="18" height="9" viewBox="0 0 18 9" fill="none" xmlns="http://www.w3.org/2000/svg">
<g clip-path="url(#clip0_196_7163)">
<path d="M15.5807 5.22591H0.79599C0.39962 5.22591 0.13455 5.04785 0.033169 4.71717C0.00184432 4.61309 -0.00640607 4.50307 0.00903238 4.39525C0.0244708 4.28744 0.0632002 4.18459 0.122355 4.09432C0.181509 4.00405 0.259574 3.92866 0.35077 3.87375C0.441966 3.81884 0.54396 3.7858 0.649198 3.77708C0.719601 3.77163 0.790004 3.7749 0.860407 3.7749H15.5786C15.5082 3.6975 15.4631 3.64554 15.4156 3.59685C14.6562 2.81581 13.8966 2.03525 13.137 1.25518C12.9356 1.04878 12.8708 0.798768 12.9469 0.52332C13.0229 0.247873 13.2056 0.0799876 13.4749 0.019302C13.7368 -0.03993 13.9575 0.0494633 14.1437 0.242058C14.8283 0.946302 15.5135 1.64958 16.1995 2.35188C16.7189 2.88485 17.2375 3.41782 17.7554 3.95078C18.0779 4.28474 18.0825 4.71063 17.7604 5.04276C16.5541 6.28554 15.3455 7.52615 14.1346 8.76457C13.8551 9.05055 13.464 9.07599 13.1803 8.83725C13.0488 8.72844 12.9596 8.57443 12.9291 8.40337C12.8985 8.2323 12.9286 8.0556 13.0138 7.90552C13.0652 7.82484 13.126 7.7509 13.1947 7.68531C13.9365 6.92026 14.6792 6.15642 15.4226 5.39379C15.4677 5.35019 15.5082 5.30295 15.5807 5.22591Z" fill="#0A0F1A"/>
</g>
<defs>
<clipPath id="clip0_196_7163">
<rect width="18" height="9" fill="white"/>
</clipPath>
</defs>
</svg>
