<svg width="30" height="30" viewBox="0 0 30 30" fill="none" xmlns="http://www.w3.org/2000/svg">
<path d="M0.503011 13.0399C0.503011 10.0947 0.503011 7.14948 0.503011 4.20429C0.503011 2.42244 1.61469 1.00931 3.33892 0.592453C3.60478 0.529225 3.87727 0.498039 4.15056 0.499565C9.56866 0.499565 14.9868 0.499565 20.4049 0.499565C22.4609 0.499565 24.0586 2.1047 24.0609 4.16464C24.0651 7.76118 24.0651 11.3575 24.0609 14.9537C24.0609 17.0255 22.4569 18.6188 20.3771 18.6199C16.0635 18.6225 11.7498 18.6225 7.43624 18.6199C7.2697 18.6145 7.10738 18.6728 6.98249 18.783C5.36262 20.1401 3.73917 21.493 2.11211 22.8417C1.78712 23.113 1.43433 23.2625 1.02256 23.0598C0.610785 22.857 0.501876 22.503 0.502444 22.0726C0.505847 19.062 0.506036 16.0512 0.503011 13.0399ZM2.31403 20.2562C2.44335 20.2409 2.49156 20.165 2.55395 20.1129C3.73633 19.1293 4.91758 18.1443 6.0977 17.1581C6.37016 16.9231 6.72079 16.7985 7.08063 16.8086C11.4604 16.8154 15.8404 16.8167 20.2205 16.8126C21.5154 16.8126 22.2522 16.0763 22.2522 14.777V4.35551C22.2522 3.04206 21.5188 2.31199 20.2001 2.31199H4.37007C3.03719 2.31199 2.31403 3.03923 2.31403 4.37986V20.2562Z" fill="#2263E3"/>
<path d="M27.6888 26.6879V26.348C27.6888 21.4224 27.6888 16.4963 27.6888 11.5699C27.6888 10.3607 27.0354 9.65385 25.8319 9.55757C25.3242 9.51679 24.9522 9.10956 24.9714 8.61624C24.9822 8.38286 25.0824 8.16256 25.2514 8.00094C25.4203 7.83931 25.645 7.74874 25.8789 7.74797C27.5975 7.70662 29.2162 9.09427 29.4522 10.8008C29.4863 11.0527 29.503 11.3067 29.5021 11.5609V28.3496C29.5021 28.3966 29.5021 28.4442 29.5021 28.4912C29.5106 28.8939 29.358 29.2105 28.9916 29.3974C28.6252 29.5843 28.2758 29.4852 27.9662 29.2439C27.5124 28.8905 27.0655 28.528 26.6163 28.1678C25.7258 27.4549 24.8357 26.7409 23.946 26.0258C23.8176 25.9177 23.6538 25.8608 23.486 25.866C19.4753 25.8706 15.4645 25.8715 11.4538 25.8689C9.67455 25.8689 8.26 24.7542 7.84483 23.0307C7.69963 22.4269 7.73139 21.8096 7.77166 21.2007C7.80172 20.7408 8.24922 20.4123 8.70751 20.4355C8.931 20.4485 9.1418 20.5436 9.29937 20.7024C9.45693 20.8612 9.55016 21.0726 9.56112 21.2959C9.5736 21.5791 9.56111 21.8623 9.56508 22.1455C9.57359 23.2879 10.3427 24.0576 11.4935 24.0587C15.5795 24.061 19.6656 24.0591 23.752 24.053C24.1662 24.0446 24.569 24.1887 24.8835 24.458C25.7502 25.1705 26.6322 25.8649 27.5084 26.5655C27.5527 26.5984 27.5992 26.6267 27.6888 26.6879Z" fill="#2263E3"/>
<path d="M12.2686 7.75003C10.4752 7.75003 8.68173 7.75343 6.8883 7.75003C6.14189 7.75003 5.69722 7.00014 6.07213 6.38335C6.25873 6.0758 6.54402 5.9393 6.90305 5.94044C7.93192 5.94044 8.96078 5.94044 9.98965 5.94044C12.5476 5.94044 15.1056 5.94044 17.6636 5.94044C18.3658 5.94044 18.8201 6.58102 18.5513 7.19441C18.3811 7.57955 18.0686 7.75117 17.6483 7.7506C15.8549 7.74796 14.0616 7.74777 12.2686 7.75003Z" fill="#2263E3"/>
<path d="M10.4716 11.3749C9.29186 11.3749 8.11194 11.3749 6.93182 11.3749C6.35329 11.3749 5.94549 11.0028 5.94096 10.4789C5.93642 9.95502 6.34365 9.56648 6.91537 9.56592C9.29413 9.56592 11.6727 9.56592 14.0511 9.56592C14.7374 9.56592 15.1792 10.1957 14.9353 10.8063C14.7941 11.162 14.4657 11.3727 14.0392 11.3727C12.85 11.3742 11.6608 11.3749 10.4716 11.3749Z" fill="#2263E3"/>
</svg>
