<svg width="27" height="27" viewBox="0 0 27 27" fill="none" xmlns="http://www.w3.org/2000/svg">
<path d="M13.4874 26.9997C11.0055 26.9927 8.56737 26.7016 6.2186 25.8513C5.06133 25.4322 3.98075 24.8754 3.03326 24.0765C1.895 23.1164 1.32334 21.8229 0.908847 20.4456C0.14008 17.894 -0.055756 15.272 0.0126915 12.6227C0.0690974 10.4427 0.367605 8.30384 1.00328 6.20623C1.72451 3.82962 3.31212 2.3249 5.55061 1.40546C8.13957 0.341434 10.8502 -0.00858988 13.6236 -0.000346566C16.0744 0.00726264 18.4796 0.307827 20.7973 1.14864C21.9444 1.56461 23.0149 2.11882 23.9554 2.90954C25.1044 3.87528 25.6786 5.17836 26.0956 6.5664C26.8625 9.11929 27.0577 11.7413 26.9867 14.3899C26.9284 16.57 26.6331 18.7094 25.9904 20.8051C25.3015 23.0524 23.8388 24.5438 21.7258 25.4734C19.7826 26.3288 17.7387 26.741 15.6371 26.9191C14.9216 26.98 14.2054 26.9971 13.488 26.999L13.4874 26.9997ZM2.71383 13.494C2.72461 15.4717 2.90207 17.426 3.36472 19.3581C3.80836 21.2116 4.87754 22.4468 6.65781 23.1323C8.88742 23.9909 11.202 24.3041 13.5666 24.3009C15.781 24.2984 17.951 23.9953 20.0551 23.2496C21.9786 22.5686 23.198 21.3181 23.6505 19.2903C24.0251 17.6143 24.2381 15.9283 24.2735 14.2156C24.3198 12.0038 24.1823 9.8111 23.6315 7.65706C23.2538 6.17833 22.5877 4.92281 21.1281 4.23862C20.7656 4.06868 20.4082 3.88923 20.0323 3.74973C18.1741 3.06046 16.2424 2.77321 14.2726 2.71297C11.7888 2.63688 9.35641 2.91081 6.99117 3.73451C5.04105 4.41363 3.80709 5.66852 3.34381 7.72174C2.91347 9.62784 2.72651 11.5479 2.7132 13.4933L2.71383 13.494Z" fill="#2263E3"/>
<path d="M14.8459 15.3693C14.8459 16.224 14.8504 17.0782 14.8428 17.9323C14.8409 18.1282 14.8719 18.2221 15.1033 18.2589C15.7681 18.366 16.2441 18.99 16.2016 19.6406C16.1553 20.3489 15.6191 20.9005 14.9144 20.9145C13.9663 20.9335 13.0175 20.9335 12.0694 20.9132C11.3817 20.898 10.8551 20.3527 10.8006 19.6552C10.7499 19.0071 11.2246 18.3692 11.8837 18.262C12.1271 18.2221 12.1606 18.1263 12.1594 17.9158C12.1511 16.7662 12.1499 15.6159 12.16 14.4663C12.1619 14.2571 12.1004 14.1791 11.8926 14.1385C11.2036 14.0034 10.7372 13.3826 10.8025 12.7213C10.8735 12.0009 11.428 11.486 12.1556 11.474C12.5986 11.4664 13.0416 11.4677 13.484 11.474C14.2578 11.4848 14.8149 12.0339 14.844 12.8056C14.8447 12.8265 14.8453 12.8481 14.8453 12.869C14.8453 13.7022 14.8453 14.5354 14.8453 15.3693H14.8459Z" fill="#2263E3"/>
<path d="M13.486 9.77849C12.5538 9.77278 11.7977 9.00742 11.8097 8.08164C11.8218 7.15204 12.5861 6.4019 13.5146 6.40824C14.4392 6.41458 15.2023 7.18946 15.1915 8.11017C15.1801 9.0442 14.424 9.7842 13.486 9.77786V9.77849Z" fill="#2263E3"/>
</svg>
