<svg width="16" height="16" viewBox="0 0 16 16" fill="none" xmlns="http://www.w3.org/2000/svg">
<path d="M7.99798 8.99285e-07C12.8256 -0.00219144 16.0371 4.00446 15.9992 7.95067C15.9601 12.0716 12.7937 16.0044 7.99329 15.9997C3.22162 15.9953 0.0498924 12.0973 -0.000457503 7.96978C-0.0479928 4.00697 3.17346 0.00219324 7.99798 8.99285e-07ZM8.00079 14.715C11.6376 14.6837 14.6473 12.1468 14.7324 7.97604C14.8077 4.27757 11.7132 1.23961 7.99861 1.24243C4.28992 1.24243 1.20669 4.26441 1.26799 7.96445C1.33616 12.0832 4.30367 14.6796 8.00079 14.715Z" fill="#BDBDBD"/>
<path d="M8.62492 5.406C8.62492 5.98947 8.62492 6.57295 8.62492 7.15642C8.62206 7.1971 8.62773 7.23793 8.64158 7.27628C8.65542 7.31463 8.67712 7.34966 8.70529 7.3791C8.84659 7.52826 8.92779 7.72448 8.93328 7.93C8.93442 7.97072 8.94399 8.01075 8.96138 8.04757C8.97877 8.08439 9.00359 8.1172 9.03429 8.14392C9.65767 8.76466 10.2795 9.38708 10.8997 10.0112C11.0849 10.1991 11.144 10.4221 11.0561 10.6714C10.9729 10.9069 10.7975 11.0472 10.5507 11.0826C10.3206 11.1164 10.1382 11.0199 9.97874 10.8596C9.38111 10.2573 8.77973 9.65882 8.18209 9.05656C8.11334 8.98028 8.0182 8.93303 7.91596 8.92439C7.53505 8.88774 7.26735 8.68104 7.131 8.324C6.99715 7.97323 7.05469 7.64625 7.30926 7.36626C7.36993 7.29986 7.37712 7.23347 7.37681 7.15454C7.37681 5.99302 7.37681 4.8314 7.37681 3.66967C7.37681 3.35303 7.51566 3.13129 7.76553 3.03451C8.19022 2.87009 8.61804 3.15979 8.62398 3.62457C8.6318 4.21963 8.62586 4.81219 8.62586 5.406H8.62492Z" fill="#BDBDBD"/>
</svg>
